<svg width="195" height="36" viewBox="0 0 195 36" fill="none" xmlns="http://www.w3.org/2000/svg">
<g clip-path="url(#clip0_2612_12417)">
<path d="M109.4 26.3772H113.566V10.6631H109.4V26.3772ZM109.4 8.21264H113.566V4.47559H109.4V8.21264Z" fill="white"/>
<path d="M116.251 31.5231H120.417V24.6003H120.478C121.366 25.9482 122.806 26.8365 125.011 26.8365C129.054 26.8365 131.812 23.6202 131.812 18.5354C131.812 13.6342 129.147 10.2341 124.98 10.2341C122.836 10.2341 121.366 11.245 120.355 12.6234H120.263V10.663H116.251V31.5231ZM124.123 23.3751C121.642 23.3751 120.325 21.5066 120.325 18.6578C120.325 15.8397 121.366 13.6037 123.97 13.6037C126.543 13.6037 127.584 15.6866 127.584 18.6578C127.584 21.6291 126.237 23.3751 124.123 23.3751Z" fill="white"/>
<path d="M140.121 26.8365C144.043 26.8365 146.738 24.9373 146.738 21.7822C146.738 18.1065 143.828 17.3713 141.193 16.82C138.957 16.3605 136.875 16.2379 136.875 14.8902C136.875 13.7568 137.947 13.1442 139.57 13.1442C141.347 13.1442 142.419 13.7568 142.602 15.4415H146.37C146.064 12.2865 143.766 10.2341 139.632 10.2341C136.047 10.2341 133.229 11.8577 133.229 15.2577C133.229 18.6885 135.987 19.4542 138.804 20.0057C140.949 20.4345 142.939 20.5876 142.939 22.0886C142.939 23.1913 141.898 23.8959 140.061 23.8959C138.192 23.8959 136.905 23.0994 136.63 21.2922H132.77C133.015 24.631 135.558 26.8365 140.121 26.8365Z" fill="white"/>
<path d="M162.554 26.3771V10.6631H158.388V19.7301C158.388 21.813 157.194 23.2833 155.233 23.2833C153.456 23.2833 152.63 22.2725 152.63 20.4346V10.6631H148.494V21.1391C148.494 24.5698 150.455 26.806 153.947 26.806C156.153 26.806 157.378 25.9789 158.45 24.5393H158.542V26.3771H162.554Z" fill="white"/>
<path d="M165.249 26.377H169.415V17.2488C169.415 15.1658 170.549 13.8181 172.234 13.8181C173.765 13.8181 174.653 14.737 174.653 16.5136V26.377H178.819V17.2488C178.819 15.1658 179.891 13.8181 181.637 13.8181C183.169 13.8181 184.057 14.737 184.057 16.5136V26.377H188.223V15.8091C188.223 12.3783 186.354 10.2341 183.046 10.2341C181.055 10.2341 179.401 11.2756 178.328 12.991H178.268C177.502 11.3369 175.909 10.2341 173.918 10.2341C171.743 10.2341 170.212 11.3369 169.354 12.7765H169.262V10.663H165.249V26.377Z" fill="white"/>
<path d="M0.821899 26.3772H4.98779V4.47559H0.821899V26.3772Z" fill="white"/>
<path d="M15.174 26.8365C20.0444 26.8365 23.3832 23.222 23.3832 18.5354C23.3832 13.8486 20.0444 10.2341 15.174 10.2341C10.3035 10.2341 6.96472 13.8486 6.96472 18.5354C6.96472 23.222 10.3035 26.8365 15.174 26.8365ZM15.174 23.6508C12.601 23.6508 11.1919 21.5984 11.1919 18.5354C11.1919 15.4722 12.601 13.3892 15.174 13.3892C17.7164 13.3892 19.1561 15.4722 19.1561 18.5354C19.1561 21.5984 17.7164 23.6508 15.174 23.6508Z" fill="white"/>
<path d="M32.2425 31.7375C34.5705 31.7375 36.5922 31.1862 37.9093 29.9609C39.0733 28.8888 39.7778 27.3878 39.7778 25.1824V10.663H35.7651V12.3171H35.7038C34.7542 11 33.3146 10.2341 31.3541 10.2341C27.3721 10.2341 24.554 13.236 24.554 17.9226C24.554 22.6706 27.9847 25.4274 31.4767 25.4274C33.4677 25.4274 34.6624 24.631 35.5813 23.5895H35.6732V25.3049C35.6732 27.4491 34.5398 28.5825 32.1812 28.5825C30.2514 28.5825 29.3631 27.8167 29.0262 26.8365H24.8909C25.3197 29.8997 27.954 31.7375 32.2425 31.7375ZM32.1812 22.0886C30.037 22.0886 28.628 20.5263 28.628 17.8614C28.628 15.2271 30.037 13.573 32.1505 13.573C34.6624 13.573 35.8876 15.5335 35.8876 17.8308C35.8876 20.1588 34.8155 22.0886 32.1812 22.0886Z" fill="white"/>
<path d="M49.9037 26.8365C54.7741 26.8365 58.113 23.222 58.113 18.5354C58.113 13.8486 54.7741 10.2341 49.9037 10.2341C45.0334 10.2341 41.6945 13.8486 41.6945 18.5354C41.6945 23.222 45.0334 26.8365 49.9037 26.8365ZM49.9037 23.6508C47.3307 23.6508 45.9217 21.5984 45.9217 18.5354C45.9217 15.4722 47.3307 13.3892 49.9037 13.3892C52.4462 13.3892 53.8859 15.4722 53.8859 18.5354C53.8859 21.5984 52.4462 23.6508 49.9037 23.6508Z" fill="white"/>
<path d="M189.737 8.08344C189.737 7.37855 190.308 6.80713 191.013 6.80713H193.566C194.271 6.80713 194.842 7.37855 194.842 8.08344C194.842 8.78833 194.271 9.35977 193.566 9.35977H191.013C190.308 9.35977 189.737 8.78833 189.737 8.08344Z" fill="white"/>
<path fill-rule="evenodd" clip-rule="evenodd" d="M83.3772 0C93.2453 0 101.246 7.99997 101.246 17.8684C101.246 27.7369 93.2453 35.7368 83.3772 35.7368C73.5087 35.7368 65.5088 27.7369 65.5088 17.8684C65.5088 7.99997 73.5087 0 83.3772 0ZM82.7314 1.33709C80.6928 1.62396 78.7518 3.26195 77.245 6.00147C76.808 6.7961 76.4136 7.674 76.07 8.62191C78.1188 8.10705 80.3694 7.80352 82.7314 7.75657V1.33709ZM74.5598 9.05107C74.9872 7.70985 75.5099 6.47587 76.1132 5.37898C76.8601 4.02092 77.7466 2.84818 78.7454 1.94745C73.3143 3.52475 69.0335 7.80563 67.4562 13.2367C68.3569 12.2379 69.5296 11.3515 70.8877 10.6046C71.9847 10.0012 73.2186 9.47839 74.5598 9.05107ZM74.1307 10.5612C73.6158 12.61 73.3123 14.8606 73.2653 17.2226H66.8458C67.1327 15.184 68.7707 13.243 71.5103 11.7363C72.3049 11.2993 73.1827 10.9049 74.1307 10.5612ZM74.5573 17.2226C74.6106 14.645 74.9817 12.225 75.5957 10.0869C77.7338 9.47294 80.1537 9.10182 82.7314 9.04848V11.8385C81.7698 14.3003 79.8085 16.2613 77.3467 17.2226H74.5573ZM73.2653 18.5143H66.8458C67.1327 20.5528 68.7707 22.4938 71.5103 24.0005C72.3049 24.4376 73.1827 24.8319 74.1307 25.1756C73.6158 23.1268 73.3123 20.8762 73.2653 18.5143ZM75.5957 25.6499C74.9817 23.5118 74.6106 21.0919 74.5573 18.5143H77.3467C79.8085 19.4755 81.7698 21.4366 82.7314 23.8983V26.6884C80.1537 26.635 77.7338 26.2639 75.5957 25.6499ZM74.5598 26.6858C73.2186 26.2584 71.9847 25.7356 70.8877 25.1323C69.5296 24.3854 68.3569 23.4989 67.4562 22.5002C69.0335 27.9312 73.3143 32.2121 78.7454 33.7894C77.7466 32.8886 76.8601 31.7159 76.1132 30.3578C75.5099 29.261 74.9872 28.027 74.5598 26.6858ZM82.7314 34.3997C80.6928 34.1129 78.7518 32.4749 77.245 29.7354C76.808 28.9408 76.4136 28.0628 76.07 27.115C78.1188 27.6298 80.3694 27.9333 82.7314 27.9802V34.3997ZM88.009 33.7894C89.0077 32.8886 89.8941 31.7159 90.641 30.3578C91.2441 29.261 91.7676 28.027 92.1946 26.6858C93.5357 26.2584 94.7695 25.7356 95.8666 25.1323C97.2246 24.3854 98.3977 23.4989 99.2982 22.5002C97.7205 27.9312 93.4401 32.2121 88.009 33.7894ZM90.6848 27.115C90.3408 28.0628 89.9459 28.9408 89.509 29.7354C88.0025 32.4749 86.0615 34.1129 84.023 34.3997V27.9802C86.3849 27.9333 88.6355 27.6298 90.6848 27.115ZM92.6235 25.1756C93.5714 24.8319 94.4496 24.4376 95.2439 24.0005C97.984 22.4938 99.6217 20.5528 99.9084 18.5143H93.4892C93.4419 20.8762 93.1381 23.1268 92.6235 25.1756ZM92.1973 18.5143C92.1437 21.0919 91.773 23.5118 91.1583 25.6499C89.0205 26.2639 86.6006 26.635 84.023 26.6884V23.9004C84.9843 21.4377 86.946 19.4758 89.4084 18.5143H92.1973ZM93.4892 17.2226H99.9084C99.6217 15.184 97.984 13.243 95.2439 11.7363C94.4496 11.2993 93.5714 10.9049 92.6235 10.5612C93.1381 12.61 93.4419 14.8606 93.4892 17.2226ZM91.1583 10.0869C91.773 12.225 92.1437 14.645 92.1973 17.2226H89.4085C86.946 16.2611 84.9843 14.2991 84.023 11.8365V9.04848C86.6006 9.10182 89.0205 9.47294 91.1583 10.0869ZM92.1946 9.05107C93.5357 9.47839 94.7695 10.0012 95.8666 10.6046C97.2246 11.3515 98.3977 12.2379 99.2982 13.2367C97.7205 7.80563 93.4401 3.52475 88.009 1.94745C89.0077 2.84818 89.8941 4.02092 90.641 5.37898C91.2441 6.47587 91.7676 7.70985 92.1946 9.05107ZM84.023 1.33709C86.0615 1.62396 88.0025 3.26195 89.509 6.00147C89.9459 6.79611 90.3408 7.674 90.6848 8.62191C88.6355 8.10705 86.3849 7.80352 84.023 7.75657V1.33709Z" fill="white"/>
</g>
<defs>
<clipPath id="clip0_2612_12417">
<rect width="194.766" height="35.7368" fill="white" transform="translate(0.0855713)"/>
</clipPath>
</defs>
</svg>
