<svg width="172" height="38" viewBox="0 0 172 38" fill="none" xmlns="http://www.w3.org/2000/svg">
<g clip-path="url(#clip0_2612_12477)">
<path fill-rule="evenodd" clip-rule="evenodd" d="M54.5935 2.52891C54.5935 1.24118 55.6464 0.197266 56.9454 0.197266H61.0425C61.9669 0.197266 62.8629 0.514889 63.5777 1.09607L64.8241 2.10935L64.8552 2.13754C64.884 2.12792 64.9128 2.11852 64.9416 2.10935C67.1902 1.39533 69.9183 1.25954 72.7028 1.25954C75.4872 1.25954 78.2154 1.39533 80.464 2.10935C80.4928 2.11852 80.5216 2.12792 80.5503 2.13754L80.5815 2.10935L81.8279 1.09607C82.5427 0.514889 83.4386 0.197266 84.3631 0.197266H88.4602C89.7592 0.197266 90.8121 1.24118 90.8121 2.52891V3.9703C90.8121 5.0855 90.3382 6.14912 89.5067 6.90023L88.5013 7.80851C88.0104 8.25192 87.4213 8.57463 86.7814 8.75056L86.5435 8.81595C87.4752 11.0199 87.9899 13.3757 87.9899 15.2815C87.9899 22.9476 83.2054 26.2585 78.9898 29.1758C75.6699 31.4733 72.7028 33.5265 72.7028 37.2705C72.7028 33.5265 69.7357 31.4733 66.4158 29.1758C62.2002 26.2585 57.4157 22.9476 57.4157 15.2815C57.4157 13.3757 57.9304 11.0199 58.8621 8.81595L58.6242 8.75056C57.9843 8.57463 57.3952 8.25192 56.9043 7.80851L55.8989 6.90023C55.0673 6.14912 54.5935 5.0855 54.5935 3.9703V2.52891ZM75.7602 21.5489C75.7602 21.9151 75.5991 22.2663 75.3125 22.5254C75.0258 22.7843 74.637 22.9298 74.2315 22.9298C73.8815 22.9298 73.5437 22.8213 73.2735 22.625C73.7335 23.8456 74.9106 25.0022 76.701 23.1423C78.2815 21.414 76.6307 17.7689 75.0224 15.6058C74.4863 14.8849 73.6063 14.5379 72.7028 14.5379C71.7993 14.5379 70.9193 14.8849 70.3832 15.6058C68.7749 17.7689 67.1241 21.414 68.7046 23.1423C70.495 25.0022 71.6721 23.8456 72.1321 22.625C71.8618 22.8213 71.5241 22.9298 71.1741 22.9298C70.7686 22.9298 70.3798 22.7843 70.0931 22.5254C69.8064 22.2663 69.6454 21.9151 69.6454 21.5489H75.7602ZM66.8486 10.7586H62.5898L65.9462 13.423C66.6847 14.0092 67.7643 13.8218 68.2213 13.028C68.7983 12.0257 68.0319 10.7586 66.8486 10.7586ZM78.557 10.7586H82.8157L79.4594 13.423C78.7209 14.0092 77.6413 13.8218 77.1843 13.028C76.6073 12.0257 77.3737 10.7586 78.557 10.7586Z" fill="white"/>
<path d="M95.8854 26.4574H99.6583V12.1935H95.8854V26.4574ZM95.8854 9.96911H99.6583V6.5769H95.8854V9.96911Z" fill="white"/>
<path d="M102.089 31.1288H105.862V24.8449H105.918C106.722 26.0683 108.026 26.8747 110.024 26.8747C113.685 26.8747 116.182 23.9552 116.182 19.3396C116.182 14.8908 113.769 11.8044 109.996 11.8044C108.054 11.8044 106.722 12.722 105.807 13.9732H105.724V12.1937H102.089V31.1288ZM109.219 23.7327C106.972 23.7327 105.779 22.0366 105.779 19.4508C105.779 16.8927 106.722 14.863 109.08 14.863C111.411 14.863 112.354 16.7537 112.354 19.4508C112.354 22.1479 111.133 23.7327 109.219 23.7327Z" fill="white"/>
<path d="M123.709 26.8747C127.26 26.8747 129.701 25.1508 129.701 22.2869C129.701 18.9503 127.065 18.283 124.68 17.7825C122.655 17.3654 120.768 17.2542 120.768 16.0308C120.768 15.002 121.739 14.4459 123.209 14.4459C124.818 14.4459 125.789 15.002 125.956 16.5313H129.368C129.091 13.6674 127.01 11.8044 123.265 11.8044C120.019 11.8044 117.467 13.2781 117.467 16.3644C117.467 19.4786 119.964 20.1737 122.516 20.6742C124.458 21.0635 126.261 21.2025 126.261 22.5649C126.261 23.5659 125.318 24.2054 123.653 24.2054C121.961 24.2054 120.796 23.4825 120.546 21.842H117.051C117.273 24.8727 119.575 26.8747 123.709 26.8747Z" fill="white"/>
<path d="M144.026 26.4575V12.1936H140.253V20.4238C140.253 22.3146 139.171 23.6492 137.396 23.6492C135.787 23.6492 135.038 22.7317 135.038 21.0634V12.1936H131.292V21.7029C131.292 24.817 133.068 26.8468 136.231 26.8468C138.228 26.8468 139.338 26.096 140.309 24.7892H140.392V26.4575H144.026Z" fill="white"/>
<path d="M146.466 26.4576H150.239V18.1718C150.239 16.281 151.266 15.0576 152.791 15.0576C154.179 15.0576 154.983 15.8918 154.983 17.5044V26.4576H158.756V18.1718C158.756 16.281 159.727 15.0576 161.308 15.0576C162.695 15.0576 163.5 15.8918 163.5 17.5044V26.4576H167.273V16.8649C167.273 13.7508 165.58 11.8044 162.584 11.8044C160.781 11.8044 159.283 12.7498 158.312 14.3069H158.257C157.563 12.8054 156.121 11.8044 154.317 11.8044C152.348 11.8044 150.961 12.8054 150.184 14.1122H150.1V12.1937H146.466V26.4576Z" fill="white"/>
<path d="M0.632568 26.4574H4.40547V6.5769H0.632568V26.4574Z" fill="white"/>
<path d="M13.6308 26.8747C18.0418 26.8747 21.0656 23.5937 21.0656 19.3396C21.0656 15.0854 18.0418 11.8044 13.6308 11.8044C9.21979 11.8044 6.19592 15.0854 6.19592 19.3396C6.19592 23.5937 9.21979 26.8747 13.6308 26.8747ZM13.6308 23.983C11.3005 23.983 10.0244 22.1201 10.0244 19.3396C10.0244 16.5591 11.3005 14.6683 13.6308 14.6683C15.9334 14.6683 17.2373 16.5591 17.2373 19.3396C17.2373 22.1201 15.9334 23.983 13.6308 23.983Z" fill="white"/>
<path d="M29.0891 31.3235C31.1975 31.3235 33.0284 30.823 34.2213 29.7108C35.2755 28.7376 35.9136 27.3752 35.9136 25.3732V12.1937H32.2794V13.6952H32.2239C31.3639 12.4996 30.06 11.8044 28.2846 11.8044C24.6781 11.8044 22.1259 14.5293 22.1259 18.7835C22.1259 23.0932 25.233 25.5957 28.3955 25.5957C30.1988 25.5957 31.2807 24.8727 32.113 23.9274H32.1962V25.4844C32.1962 27.4308 31.1697 28.4596 29.0336 28.4596C27.2859 28.4596 26.4813 27.7644 26.1762 26.8747H22.431C22.8194 29.6552 25.2052 31.3235 29.0891 31.3235ZM29.0336 22.5649C27.0917 22.5649 25.8155 21.1469 25.8155 18.7279C25.8155 16.3366 27.0917 14.8352 29.0059 14.8352C31.2807 14.8352 32.3904 16.6147 32.3904 18.7001C32.3904 20.8132 31.4194 22.5649 29.0336 22.5649Z" fill="white"/>
<path d="M45.0843 26.8747C49.4952 26.8747 52.5191 23.5937 52.5191 19.3396C52.5191 15.0854 49.4952 11.8044 45.0843 11.8044C40.6733 11.8044 37.6494 15.0854 37.6494 19.3396C37.6494 23.5937 40.6733 26.8747 45.0843 26.8747ZM45.0843 23.983C42.7539 23.983 41.4778 22.1201 41.4778 19.3396C41.4778 16.5591 42.7539 14.6683 45.0843 14.6683C47.3868 14.6683 48.6907 16.5591 48.6907 19.3396C48.6907 22.1201 47.3868 23.983 45.0843 23.983Z" fill="white"/>
<path d="M167.103 9.07968C167.103 8.43983 167.62 7.92114 168.259 7.92114H170.57C171.208 7.92114 171.726 8.43983 171.726 9.07968C171.726 9.71948 171.208 10.2382 170.57 10.2382H168.259C167.62 10.2382 167.103 9.71948 167.103 9.07968Z" fill="white"/>
</g>
<defs>
<clipPath id="clip0_2612_12477">
<rect width="172" height="38" fill="white"/>
</clipPath>
</defs>
</svg>
