<svg width="75" height="21" viewBox="0 0 75 21" fill="none" xmlns="http://www.w3.org/2000/svg">
<circle cx="5.90196" cy="10.902" r="5.90196" fill="black"/>
<path d="M36.8688 15.1165C37.0846 17.5448 37.3544 19.0017 38.1099 20H35.5467C35.0341 18.8129 34.7913 17.6257 34.5485 15.3324C34.3326 13.4168 33.6041 12.1487 31.7695 12.0138C31.3378 11.9868 30.8791 11.9868 30.4474 11.9868H26.94V20H24.6197V1.38353H30.7172C31.6616 1.38353 32.3091 1.38353 33.1455 1.49145C35.8435 1.84219 37.7861 3.32612 37.7861 6.45584C37.7861 8.91106 36.1943 10.314 34.4675 10.8536C35.9784 11.5551 36.7069 13.2549 36.8688 15.1165ZM26.94 10.0982H30.5014C31.3378 10.0982 31.7965 10.0982 32.3091 10.0442C34.0358 9.88235 35.3039 8.77616 35.3039 6.67169C35.3039 4.59419 34.3056 3.64988 32.5789 3.38008C32.0663 3.29914 31.5536 3.27216 30.7172 3.27216H26.94V10.0982ZM44.1303 4.27043C43.4558 4.27043 42.8892 3.70384 42.8892 3.02933C42.8892 2.35482 43.4558 1.78823 44.1303 1.78823C44.8048 1.78823 45.3714 2.35482 45.3714 3.02933C45.3714 3.70384 44.8048 4.27043 44.1303 4.27043ZM48.0694 4.27043C47.3949 4.27043 46.8283 3.70384 46.8283 3.02933C46.8283 2.35482 47.3949 1.78823 48.0694 1.78823C48.7439 1.78823 49.3105 2.35482 49.3105 3.02933C49.3105 3.70384 48.7439 4.27043 48.0694 4.27043ZM52.3593 12.4455C52.3593 12.6613 52.3593 13.0391 52.3053 13.5517H41.9449C42.1607 17.3289 43.9414 18.597 46.0459 18.597C47.9075 18.597 49.4184 17.4369 49.7422 15.3864H52.1704C51.6039 18.8398 48.8788 20.3777 45.938 20.3777C42.2147 20.3777 39.4357 17.9495 39.4357 12.9042C39.4357 8.26353 42.3226 5.32267 46.2348 5.32267C50.1739 5.32267 52.3593 8.26353 52.3593 12.4455ZM46.1808 7.10337C43.9144 7.10337 42.2417 8.7222 41.9719 11.771H50.012C49.7962 8.80314 48.5281 7.10337 46.1808 7.10337ZM63.6325 20L63.3897 17.9495L62.6072 19.4874C61.6359 20.1619 60.3948 20.3777 59.0188 20.3777C56.4287 20.3777 54.4052 18.9478 54.4052 16.3037C54.4052 13.066 56.8334 11.3933 62.4453 11.3933H63.3627V11.0155C63.3627 10.395 63.3627 9.82839 63.3087 9.28878C63.2008 7.96674 62.4453 7.10337 60.5297 7.10337C58.5871 7.10337 57.6158 8.15561 57.454 10.1252H55.0257C55.2416 7.07639 57.373 5.32267 60.5297 5.32267C63.9293 5.32267 65.3592 6.75263 65.602 9.09992C65.656 9.66651 65.683 10.368 65.683 10.9885V16.3576C65.683 17.4369 65.7369 18.4082 65.9528 20H63.6325ZM59.8013 18.597C61.9597 18.597 63.3627 17.1671 63.3627 14.5769V13.12C59.4235 12.8232 56.9413 13.6596 56.9413 16.1148C56.9413 17.8416 58.0475 18.597 59.8013 18.597ZM71.9762 0.169411V15.899C71.9762 16.3307 71.9762 16.7893 72.0031 17.248C72.0571 18.1653 72.4888 18.4621 73.7569 18.3272V20C73.2442 20.0809 72.6507 20.1079 72.1111 20.1079C70.762 20.1079 69.7638 19.6762 69.6828 17.8685C69.6558 17.3829 69.6558 16.7624 69.6558 15.9799V0.169411H71.9762Z" fill="black"/>
</svg>
