<svg width="187" height="37" viewBox="0 0 187 37" fill="none" xmlns="http://www.w3.org/2000/svg">
<g clip-path="url(#clip0_2612_12340)">
<path fill-rule="evenodd" clip-rule="evenodd" d="M23.658 10.8089C22.1356 9.79251 20.3458 9.25 18.5149 9.25V0C22.1767 0 25.7564 1.08501 28.8011 3.11781C31.8459 5.15061 34.219 8.03992 35.6204 11.4203C37.0217 14.8007 37.3883 18.5205 36.6739 22.1092C35.9595 25.6978 34.1962 28.9942 31.6068 31.5814C29.0175 34.1688 25.7184 35.9307 22.1269 36.6445C18.5354 37.3583 14.8126 36.992 11.4295 35.5918C8.04637 34.1915 5.15475 31.8204 3.12032 28.778C1.08588 25.7357 0 22.1589 0 18.5H9.25743C9.25743 20.3295 9.80037 22.1179 10.8176 23.639C11.8348 25.1602 13.2806 26.3458 14.9722 27.0459C16.6637 27.746 18.5251 27.9292 20.3209 27.5722C22.1166 27.2154 23.7661 26.3344 25.0609 25.0408C26.3555 23.7471 27.2372 22.0989 27.5944 20.3046C27.9516 18.5103 27.7683 16.6504 27.0676 14.9602C26.3669 13.27 25.1804 11.8253 23.658 10.8089Z" fill="white"/>
<path fill-rule="evenodd" clip-rule="evenodd" d="M9.25742 4.88856e-06C9.25742 1.21473 9.01798 2.41756 8.55275 3.53983C8.08751 4.66209 7.40562 5.6818 6.54599 6.54074C5.68636 7.39969 4.66583 8.08103 3.54266 8.54589C2.4195 9.01074 1.2157 9.25 4.04651e-07 9.25L0 18.5C2.4314 18.5 4.839 18.0215 7.08533 17.0918C9.33167 16.1621 11.3727 14.7994 13.0919 13.0814C14.8112 11.3636 16.175 9.32419 17.1055 7.07965C18.036 4.83512 18.5148 2.42945 18.5148 0L9.25742 4.88856e-06Z" fill="white"/>
<path d="M116.291 13.3684H111.799V27.6248H116.291V13.3684Z" fill="white"/>
<path d="M112.299 10.6992C112.768 11.1685 113.355 11.4032 114.06 11.4032C114.764 11.4032 115.342 11.1685 115.792 10.6992C116.243 10.2103 116.468 9.62361 116.468 8.93916C116.468 8.23516 116.243 7.64845 115.792 7.17912C115.342 6.70976 114.764 6.4751 114.06 6.4751C113.355 6.4751 112.768 6.70976 112.299 7.17912C111.848 7.64845 111.623 8.23516 111.623 8.93916C111.623 9.62361 111.848 10.2103 112.299 10.6992Z" fill="white"/>
<path d="M47.3574 27.625V6.91504H51.9666V23.5769H61.1556V27.625H47.3574Z" fill="white"/>
<path fill-rule="evenodd" clip-rule="evenodd" d="M69.4561 27.9476C67.9882 27.9476 66.6574 27.625 65.4634 26.9796C64.2891 26.3147 63.3595 25.4152 62.6744 24.2809C61.9895 23.1466 61.647 21.8755 61.647 20.4675C61.647 19.0594 61.9895 17.7981 62.6744 16.6834C63.3595 15.5687 64.2891 14.6886 65.4634 14.0433C66.6377 13.3783 67.9687 13.0459 69.4561 13.0459C70.9436 13.0459 72.2744 13.3686 73.4487 14.0139C74.623 14.6593 75.5527 15.5491 76.2377 16.6834C76.9227 17.7981 77.2653 19.0594 77.2653 20.4675C77.2653 21.8755 76.9227 23.1466 76.2377 24.2809C75.5527 25.4152 74.623 26.3147 73.4487 26.9796C72.2744 27.625 70.9436 27.9476 69.4561 27.9476ZM69.4561 23.8702C70.102 23.8702 70.6695 23.7333 71.1589 23.4595C71.6481 23.1662 72.02 22.7653 72.2744 22.2569C72.5484 21.7289 72.6854 21.1323 72.6854 20.4675C72.6854 19.8026 72.5484 19.2256 72.2744 18.7368C72.0004 18.2283 71.6188 17.8372 71.1294 17.5634C70.6597 17.27 70.102 17.1234 69.4561 17.1234C68.8298 17.1234 68.272 17.27 67.7827 17.5634C67.2934 17.8372 66.9118 18.2283 66.6377 18.7368C66.3637 19.2452 66.2268 19.8319 66.2268 20.4968C66.2268 21.1421 66.3637 21.7289 66.6377 22.2569C66.9118 22.7653 67.2934 23.1662 67.7827 23.4595C68.272 23.7333 68.8298 23.8702 69.4561 23.8702Z" fill="white"/>
<path fill-rule="evenodd" clip-rule="evenodd" d="M80.8225 33.1985C82.0164 33.746 83.3962 34.0198 84.962 34.0198C86.4885 34.0198 87.8488 33.7167 89.0427 33.1104C90.2366 32.5042 91.1759 31.6633 91.861 30.5878C92.5459 29.5122 92.8889 28.241 92.8889 26.7743V13.3686H88.4848V14.3264C88.1573 14.051 87.7853 13.8197 87.3693 13.6326C86.6059 13.261 85.735 13.0752 84.7565 13.0752C83.4452 13.0752 82.2806 13.3881 81.2629 14.0139C80.2451 14.6201 79.4427 15.461 78.8555 16.5366C78.2683 17.5927 77.9749 18.7856 77.9749 20.1155C77.9749 21.4257 78.2683 22.6186 78.8555 23.6942C79.4427 24.7698 80.2451 25.6205 81.2629 26.2463C82.2806 26.872 83.4452 27.185 84.7565 27.185C85.7154 27.185 86.5864 26.9992 87.3693 26.6276C87.7485 26.4476 88.091 26.2355 88.3968 25.9912V26.8916C88.3968 27.889 88.0739 28.6614 87.428 29.209C86.8017 29.7566 85.9308 30.0304 84.8152 30.0304C83.9149 30.0304 83.1418 29.8739 82.4959 29.561C81.8696 29.2482 81.302 28.7885 80.7931 28.1823L78.0335 30.9397C78.7185 31.9175 79.6482 32.6705 80.8225 33.1985ZM87.2225 22.7848C86.7723 23.0586 86.2341 23.1955 85.6078 23.1955C84.9815 23.1955 84.4335 23.0586 83.9638 22.7848C83.5136 22.511 83.1613 22.1395 82.9069 21.6701C82.6524 21.1812 82.5252 20.663 82.5252 20.1155C82.5252 19.5287 82.6524 19.0007 82.9069 18.5314C83.1613 18.0621 83.5234 17.6905 83.9931 17.4167C84.4628 17.1429 85.0011 17.006 85.6078 17.006C86.2341 17.006 86.7723 17.1429 87.2225 17.4167C87.6922 17.6905 88.0444 18.0621 88.2794 18.5314C88.5338 19.0007 88.661 19.5287 88.661 20.1155C88.661 20.7021 88.5338 21.2301 88.2794 21.6994C88.0444 22.1493 87.6922 22.511 87.2225 22.7848Z" fill="white"/>
<path fill-rule="evenodd" clip-rule="evenodd" d="M102.342 27.9476C100.874 27.9476 99.5423 27.625 98.3491 26.9796C97.1743 26.3147 96.2449 25.4152 95.5598 24.2809C94.8748 23.1466 94.5322 21.8755 94.5322 20.4675C94.5322 19.0594 94.8748 17.7981 95.5598 16.6834C96.2449 15.5687 97.1743 14.6886 98.3491 14.0433C99.5229 13.3783 100.854 13.0459 102.342 13.0459C103.829 13.0459 105.16 13.3686 106.334 14.0139C107.508 14.6593 108.438 15.5491 109.123 16.6834C109.808 17.7981 110.15 19.0594 110.15 20.4675C110.15 21.8755 109.808 23.1466 109.123 24.2809C108.438 25.4152 107.508 26.3147 106.334 26.9796C105.16 27.625 103.829 27.9476 102.342 27.9476ZM102.342 23.8702C102.987 23.8702 103.555 23.7333 104.044 23.4595C104.533 23.1662 104.905 22.7653 105.16 22.2569C105.434 21.7289 105.571 21.1323 105.571 20.4675C105.571 19.8026 105.434 19.2256 105.16 18.7368C104.886 18.2283 104.504 17.8372 104.015 17.5634C103.545 17.27 102.987 17.1234 102.342 17.1234C101.715 17.1234 101.157 17.27 100.668 17.5634C100.178 17.8372 99.7969 18.2283 99.5229 18.7368C99.2489 19.2452 99.1119 19.8319 99.1119 20.4968C99.1119 21.1421 99.2489 21.7289 99.5229 22.2569C99.7969 22.7653 100.178 23.1662 100.668 23.4595C101.157 23.7333 101.715 23.8702 102.342 23.8702Z" fill="white"/>
<path fill-rule="evenodd" clip-rule="evenodd" d="M127.087 27.9183C126.129 27.9183 125.247 27.7326 124.445 27.361C124.023 27.1654 123.641 26.932 123.301 26.6606V33.6385H118.867V13.3686H123.359V14.3525C123.685 14.0862 124.047 13.856 124.445 13.6619C125.247 13.2707 126.129 13.0752 127.087 13.0752C128.438 13.0752 129.632 13.3979 130.669 14.0433C131.726 14.6886 132.548 15.5686 133.135 16.6833C133.742 17.7981 134.045 19.0692 134.045 20.4967C134.045 21.9244 133.742 23.1955 133.135 24.3102C132.548 25.425 131.726 26.3049 130.669 26.9503C129.632 27.5957 128.438 27.9183 127.087 27.9183ZM126.266 23.8702C126.911 23.8702 127.469 23.7235 127.939 23.4302C128.428 23.1369 128.81 22.7359 129.084 22.2275C129.358 21.719 129.495 21.1421 129.495 20.4967C129.495 19.8319 129.358 19.2452 129.084 18.7367C128.81 18.2283 128.428 17.8372 127.939 17.5634C127.469 17.27 126.921 17.1234 126.294 17.1234C125.669 17.1234 125.11 17.27 124.622 17.5634C124.151 17.8372 123.78 18.2283 123.506 18.7367C123.232 19.2452 123.095 19.8319 123.095 20.4967C123.095 21.1421 123.222 21.719 123.476 22.2275C123.75 22.7359 124.132 23.1369 124.622 23.4302C125.11 23.7235 125.658 23.8702 126.266 23.8702Z" fill="white"/>
<path d="M138.441 27.6544C139.263 27.8696 140.094 27.977 140.936 27.977C142.717 27.977 144.126 27.5664 145.164 26.745C146.22 25.9237 146.749 24.8188 146.749 23.4303C146.749 22.5307 146.583 21.8071 146.25 21.2596C145.917 20.6925 145.487 20.2427 144.958 19.9102C144.43 19.5778 143.871 19.3137 143.285 19.1181C142.698 18.9226 142.139 18.7564 141.612 18.6195C141.083 18.4826 140.653 18.3262 140.319 18.1501C139.987 17.9741 139.82 17.7394 139.82 17.4461C139.82 17.1723 139.948 16.967 140.202 16.8301C140.456 16.6736 140.838 16.5955 141.347 16.5955C141.876 16.5955 142.413 16.703 142.961 16.9181C143.529 17.1332 144.038 17.5048 144.488 18.0328L147.042 15.4514C146.397 14.63 145.555 14.014 144.518 13.6034C143.5 13.1732 142.385 12.958 141.171 12.958C140.017 12.958 139.009 13.1536 138.148 13.5446C137.286 13.9358 136.62 14.4736 136.151 15.158C135.681 15.8229 135.446 16.615 135.446 17.5342C135.446 18.3946 135.613 19.1084 135.945 19.6755C136.278 20.2231 136.709 20.6534 137.237 20.9662C137.765 21.2791 138.323 21.5236 138.91 21.6995C139.497 21.8756 140.056 22.0418 140.584 22.1983C141.112 22.3352 141.543 22.5014 141.876 22.697C142.228 22.873 142.404 23.137 142.404 23.4889C142.404 23.7627 142.257 23.9778 141.963 24.1343C141.689 24.2907 141.289 24.369 140.76 24.369C139.996 24.369 139.292 24.2321 138.647 23.9583C138 23.665 137.442 23.2641 136.973 22.7556L134.419 25.337C134.908 25.865 135.495 26.3344 136.18 26.745C136.885 27.1361 137.638 27.4393 138.441 27.6544Z" fill="white"/>
<path d="M154.94 27.9474C153.629 27.9474 152.464 27.6834 151.447 27.1554C150.448 26.6078 149.666 25.8647 149.098 24.926C148.53 23.9678 148.247 22.8727 148.247 21.6406V13.3684H152.738V21.5819C152.738 22.0708 152.816 22.4913 152.973 22.8433C153.149 23.1953 153.404 23.4691 153.736 23.6647C154.069 23.8602 154.47 23.958 154.94 23.958C155.605 23.958 156.134 23.7526 156.525 23.3419C156.917 22.9117 157.112 22.3251 157.112 21.5819V13.3684H161.604V21.6113C161.604 22.8629 161.321 23.9678 160.752 24.926C160.185 25.8647 159.403 26.6078 158.404 27.1554C157.406 27.6834 156.251 27.9474 154.94 27.9474Z" fill="white"/>
<path d="M168.329 13.3686H163.837V27.625H168.329V19.2941C168.329 18.8052 168.427 18.3945 168.622 18.0621C168.838 17.7296 169.122 17.4753 169.474 17.2994C169.826 17.1038 170.227 17.006 170.677 17.006C171.323 17.006 171.861 17.2113 172.292 17.622C172.743 18.0131 172.968 18.5705 172.968 19.2941V27.625H177.459V19.2941C177.459 18.8052 177.557 18.3945 177.753 18.0621C177.968 17.7296 178.252 17.4753 178.604 17.2994C178.956 17.1038 179.358 17.006 179.808 17.006C180.454 17.006 180.992 17.2113 181.422 17.622C181.872 18.0131 182.097 18.5705 182.097 19.2941V27.625H186.59V18.7954C186.59 17.6025 186.335 16.5856 185.826 15.7447C185.336 14.8841 184.661 14.229 183.801 13.7793C182.959 13.3099 181.99 13.0752 180.894 13.0752C179.778 13.0752 178.77 13.3197 177.87 13.8086C177.285 14.1201 176.774 14.5221 176.336 15.0145C175.928 14.4994 175.432 14.0779 174.846 13.7499C174.064 13.3002 173.173 13.0752 172.175 13.0752C171.118 13.0752 170.169 13.3002 169.327 13.7499C168.961 13.937 168.629 14.1611 168.329 14.4223V13.3686Z" fill="white"/>
</g>
<defs>
<clipPath id="clip0_2612_12340">
<rect width="187" height="37" fill="white"/>
</clipPath>
</defs>
</svg>
